<?xml version="1.0" encoding="utf-8"?>
<!-- Generator: Adobe Illustrator 23.0.1, SVG Export Plug-In . SVG Version: 6.00 Build 0)  -->
<svg version="1.1" id="Layer_1" xmlns="http://www.w3.org/2000/svg" xmlns:xlink="http://www.w3.org/1999/xlink" x="0px" y="0px"
	 viewBox="0 0 64 64" style="enable-background:new 0 0 64 64;" xml:space="preserve">
<style type="text/css">
	.st0{fill:#FFEFE4;}
	.st1{fill:#69EBFC;}
	.st2{fill:#EDD4C2;}
	.st3{fill:#CFB6A4;}
	.st4{fill:#D476E2;}
	.st5{fill:#5861C7;}
	.st6{fill:#FF8354;}
	.st7{fill:#6770E6;}
	.st8{fill:#3A43A9;}
	.st9{fill:#B665C2;}
	.st10{fill:#EA82FA;}
	.st11{fill:#5FD4E3;}
	.st12{fill:#69FFFF;}
	.st13{fill:#858EFF;}
	.st14{fill:#FFA171;}
	.st15{fill:#FFF7F2;}
	.st16{fill:#E0734A;}
	.st17{fill:#FFBF8F;}
	.st18{fill:#A1F1FC;}
	.st19{fill:#7DB6C5;}
	.st20{fill:#F0E0D5;}
	.st21{fill:#8F95E6;}
	.st22{fill:#FFAC8C;}
	.st23{fill:#BFFFFC;}
	.st24{fill:#FFFFFF;}
	.st25{fill:#FFDEC7;}
	.st26{fill:#FFA0FF;}
	.st27{fill:#C2552C;}
	.st28{fill:#FFCAAA;}
	.st29{fill:#4E57BD;}
	.st30{fill:#4952B8;}
	.st31{fill:#5D66DC;}
	.st32{fill:#7B84FA;}
	.st33{fill:#BFFFFF;}
</style>
<g>
	<path class="st4" d="M60,64H4c-2.209,0-4-1.791-4-4V4c0-2.209,1.791-4,4-4h56c2.209,0,4,1.791,4,4v56C64,62.209,62.209,64,60,64z"
		/>
	<path class="st10" d="M60,0H4C1.791,0,0,1.791,0,4v2c0-2.209,1.791-4,4-4h56c2.209,0,4,1.791,4,4V4C64,1.791,62.209,0,60,0z"/>
	<path class="st0" d="M60,64H4c-2.209,0-4-1.791-4-4V8h64v52C64,62.209,62.209,64,60,64z"/>
	<rect x="30" y="11" class="st11" width="4" height="3"/>
	
		<rect x="20.49" y="15.626" transform="matrix(0.7071 -0.7071 0.7071 0.7071 -5.5373 20.4393)" class="st11" width="2.828" height="2.556"/>
	
		<rect x="40.682" y="15.626" transform="matrix(0.7071 0.7071 -0.7071 0.7071 24.2825 -24.8155)" class="st11" width="2.828" height="2.556"/>
	<circle class="st1" cx="32" cy="27.5" r="14"/>
	<circle class="st11" cx="32" cy="27.5" r="11"/>
	<path class="st2" d="M60,62H4c-2.209,0-4-1.791-4-4v2c0,2.209,1.791,4,4,4h56c2.209,0,4-1.791,4-4v-2C64,60.209,62.209,62,60,62z"
		/>
	<circle class="st6" cx="5" cy="4" r="2"/>
	<circle class="st1" cx="12" cy="4" r="2"/>
	<circle class="st5" cx="19" cy="4" r="2"/>
	<path class="st2" d="M43.5,59h-23c-3.866,0-7-3.134-7-7v0c0-3.866,3.134-7,7-7h23c3.866,0,7,3.134,7,7v0
		C50.5,55.866,47.366,59,43.5,59z"/>
	<g>
		<path class="st0" d="M39,28h-7c-0.553,0-1-0.448-1-1v-7c0-0.552,0.447-1,1-1s1,0.448,1,1v6h6c0.553,0,1,0.448,1,1S39.553,28,39,28
			z"/>
	</g>
	<g>
		<path class="st7" d="M27,56c-1.654,0-3-1.346-3-3v-2c0-1.654,1.346-3,3-3s3,1.346,3,3v2C30,54.654,28.654,56,27,56z M27,50
			c-0.552,0-1,0.449-1,1v2c0,0.551,0.448,1,1,1s1-0.449,1-1v-2C28,50.449,27.552,50,27,50z"/>
	</g>
	<g>
		<path class="st7" d="M44,56c-1.654,0-3-1.346-3-3v-2c0-1.654,1.346-3,3-3s3,1.346,3,3v2C47,54.654,45.654,56,44,56z M44,50
			c-0.552,0-1,0.449-1,1v2c0,0.551,0.448,1,1,1s1-0.449,1-1v-2C45,50.449,44.552,50,44,50z"/>
	</g>
	<g>
		<path class="st7" d="M39,56h-4c-0.431,0-0.813-0.275-0.948-0.684c-0.137-0.409,0.004-0.858,0.349-1.116l3.2-2.4
			C37.851,51.612,38,51.313,38,51c0-0.551-0.448-1-1-1s-1,0.449-1,1c0,0.552-0.447,1-1,1s-1-0.448-1-1c0-1.654,1.346-3,3-3
			s3,1.346,3,3c0,0.938-0.448,1.835-1.199,2.399L38,54h1c0.553,0,1,0.448,1,1S39.553,56,39,56z"/>
	</g>
	<g>
		<path class="st7" d="M20,56c-1.654,0-3-1.346-3-3v-2c0-1.654,1.346-3,3-3s3,1.346,3,3v2C23,54.654,21.654,56,20,56z M20,50
			c-0.552,0-1,0.449-1,1v2c0,0.551,0.448,1,1,1s1-0.449,1-1v-2C21,50.449,20.552,50,20,50z"/>
	</g>
	<circle class="st7" cx="32" cy="50" r="1"/>
	<circle class="st7" cx="32" cy="54" r="1"/>
</g>
</svg>
