<?xml version="1.0" encoding="utf-8"?>
<!-- Generator: Adobe Illustrator 16.0.0, SVG Export Plug-In . SVG Version: 6.00 Build 0)  -->
<!DOCTYPE svg PUBLIC "-//W3C//DTD SVG 1.1//EN" "http://www.w3.org/Graphics/SVG/1.1/DTD/svg11.dtd">
<svg version="1.1" id="icons" xmlns="http://www.w3.org/2000/svg" xmlns:xlink="http://www.w3.org/1999/xlink" x="0px" y="0px"
	 width="64px" height="64px" viewBox="0 0 64 64" enable-background="new 0 0 64 64" xml:space="preserve">
<g>
	<path fill="#E6E9ED" d="M50.979,18c-0.006,0-0.46,0-1.01,0H2.02c-0.55,0-1,0.449-1,1v0.01c0,0.549,0,1.449,0,2v2
		c0,0.549,0,1.449,0,2v33.992c0,0.549,0.45,1,1,1h41.95c0.55,0,1.45,0,2,0h4.02c0.55,0,1-0.451,1-1V19
		C50.989,18.449,50.985,18,50.979,18z"/>
	<path fill="#CCD1D9" d="M57,13.008c-0.011,0-0.47,0-1.02,0H8.01c-0.55,0-1,0.447-1,0.994s0,1.445,0,1.996v2c0,0.549,0,1.449,0,2v33
		c0,0.551,0.45,1,1,1h41.98c0.55,0,1.45,0,2,0h3.99c0.55,0,1-0.449,1-1v-3.959c0-0.551,0-1.01,0-1.021
		c0-0.01,0.001-0.469,0.001-1.02l0.038-32.99C57.02,13.457,57.012,13.008,57,13.008z"/>
	<path fill="#E6E9ED" d="M62.99,5.996c-0.006,0-0.46,0-1.01,0H14.03c-0.55,0-1,0.451-1,1v0.01c0,0.551,0,1.451,0,2v2
		c0,0.551,0,1.451,0,2v33.992c0,0.551,0.45,1,1,1h41.95c0.55,0,1.45,0,2,0H62c0.55,0,1-0.449,1-1V6.996
		C63,6.447,62.996,5.996,62.99,5.996z"/>
	<path fill="#545C66" d="M44.99,20.848v6.141c0,1.109-0.891,2-2,2h-10c-1.101,0-2-0.891-2-2v-6.141l7,2.15L44.99,20.848z"/>
	<path fill="#CCD1D9" d="M1,17.998c0-1.1,0.89-2,2-2h4.01v4H7H1.02H1V17.998z"/>
	<path fill="#AAB2BD" d="M6.99,12.008c0-1.109,0.899-2,2-2h4.04v4h-0.04H7.01H6.99V12.008z"/>
	<polygon fill="#656D78" points="50.96,18.988 50.99,18.998 44.99,20.838 44.99,20.848 37.99,22.998 30.99,20.848 30.99,20.838 
		24.99,18.998 37.99,14.998 	"/>
	<path fill="#CCD1D9" d="M62.98,5.998v2H13.03H13.02v-2c0-1.1,0.891-2,2-2H60.98C62.09,3.998,62.98,4.898,62.98,5.998z"/>
	<g>
		<path fill="#CCD1D9" d="M10.023,13.008c-0.553,0-1.005-0.447-1.005-1s0.442-1,0.994-1h0.011c0.552,0,1,0.447,1,1
			S10.575,13.008,10.023,13.008z"/>
	</g>
	<g>
		<path fill="#E6E9ED" d="M4.029,19.002c-0.553,0-1.005-0.447-1.005-1s0.442-1,0.994-1h0.011c0.552,0,1,0.447,1,1
			S4.581,19.002,4.029,19.002z"/>
	</g>
	<g>
		<path fill="#E6E9ED" d="M16.046,7.002c-0.553,0-1.005-0.447-1.005-1s0.442-1,0.994-1h0.011c0.552,0,1,0.447,1,1
			S16.598,7.002,16.046,7.002z"/>
	</g>
	<g>
		<path fill="#E6E9ED" d="M19.046,7.002c-0.553,0-1.005-0.447-1.005-1s0.442-1,0.994-1h0.011c0.552,0,1,0.447,1,1
			S19.598,7.002,19.046,7.002z"/>
	</g>
	<g>
		<path fill="#E6E9ED" d="M22.046,7.002c-0.553,0-1.005-0.447-1.005-1s0.442-1,0.994-1h0.011c0.552,0,1,0.447,1,1
			S22.598,7.002,22.046,7.002z"/>
	</g>
	<g>
		<path fill="#545C66" d="M30.99,27.992c-0.553,0-1-0.447-1-1V20.84c0-0.553,0.447-1,1-1s1,0.447,1,1v6.152
			C31.99,27.545,31.543,27.992,30.99,27.992z"/>
	</g>
	<g>
		<path fill="#545C66" d="M44.989,27.992c-0.553,0-1-0.447-1-1V20.84c0-0.553,0.447-1,1-1s1,0.447,1,1v6.152
			C45.989,27.545,45.542,27.992,44.989,27.992z"/>
	</g>
	<g>
		<path fill="#545C66" d="M32.99,29.992c-1.654,0-3-1.346-3-3c0-0.553,0.447-1,1-1s1,0.447,1,1c0,0.551,0.448,1,1,1
			c0.553,0,1,0.447,1,1S33.543,29.992,32.99,29.992z"/>
	</g>
	<g>
		<path fill="#545C66" d="M42.988,29.992c-0.553,0-1-0.447-1-1s0.447-1,1-1c0.552,0,1.001-0.449,1.001-1c0-0.553,0.447-1,1-1
			s1,0.447,1,1C45.989,28.646,44.643,29.992,42.988,29.992z"/>
	</g>
	<g>
		<path fill="#545C66" d="M42.988,29.992H32.99c-0.553,0-1-0.447-1-1s0.447-1,1-1h9.998c0.553,0,1,0.447,1,1
			S43.541,29.992,42.988,29.992z"/>
	</g>
	<path fill="#CCD1D9" d="M50.984,35H25.05c-0.553,0-1-0.447-1-1s0.447-1,1-1h25.935c0.553,0,1,0.447,1,1S51.537,35,50.984,35z"/>
	<path fill="#CCD1D9" d="M50.984,38H25.05c-0.553,0-1-0.447-1-1s0.447-1,1-1h25.935c0.553,0,1,0.447,1,1S51.537,38,50.984,38z"/>
	<path fill="#CCD1D9" d="M42.992,41h-9.95c-0.553,0-1-0.447-1-1s0.447-1,1-1h9.95c0.553,0,1,0.447,1,1S43.545,41,42.992,41z"/>
	<g>
		<path fill="#656D78" d="M37.989,23.994c-0.1,0-0.198-0.016-0.294-0.045l-12.998-3.998c-0.42-0.129-0.706-0.518-0.706-0.957
			s0.286-0.826,0.706-0.955l12.998-4c0.191-0.059,0.396-0.059,0.588,0l12.998,4c0.42,0.129,0.706,0.516,0.706,0.955
			s-0.286,0.828-0.706,0.957l-12.998,3.998C38.188,23.979,38.089,23.994,37.989,23.994z M28.392,18.994l9.598,2.953l9.598-2.953
			l-9.598-2.953L28.392,18.994z"/>
	</g>
	<g>
		<path fill="#FFCE54" d="M50.987,25.992c-0.553,0-1-0.447-1-1v-5.998c0-0.553,0.447-1,1-1s1,0.447,1,1v5.998
			C51.987,25.545,51.54,25.992,50.987,25.992z"/>
	</g>
	<g>
		<path fill="#FFCE54" d="M50.987,19.992H37.989c-0.553,0-1-0.447-1-1s0.447-1,1-1h12.998c0.553,0,1,0.447,1,1
			S51.54,19.992,50.987,19.992z"/>
	</g>
</g>
</svg>
